<svg xmlns="http://www.w3.org/2000/svg" width="927" height="930"><defs><clipPath id="b"><path data-name="Rectangle 264" transform="translate(.067 .067)" fill="none" d="M0 0h1799v1799H0z"/></clipPath><clipPath id="c"><path data-name="Rectangle 114" fill="none" d="M0 0h4.42v1768.19H0z"/></clipPath><clipPath id="d"><path data-name="Rectangle 116" fill="none" d="M0 0h4.432v1772.61H0z"/></clipPath><clipPath id="e"><path data-name="Rectangle 124" fill="none" d="M0 0h4.429v1772.61H0z"/></clipPath><clipPath id="f"><path data-name="Rectangle 134" transform="translate(-.281 -.195)" fill="none" d="M0 0h5v1773H0z"/></clipPath><clipPath id="g"><path data-name="Rectangle 138" fill="none" d="M0 0h4.434v1772.61H0z"/></clipPath><clipPath id="h"><path data-name="Rectangle 156" fill="none" d="M0 0h1768.19v4.42H0z"/></clipPath><clipPath id="i"><path data-name="Rectangle 158" fill="none" d="M0 0h1772.61v4.429H0z"/></clipPath><clipPath id="j"><path data-name="Rectangle 176" transform="translate(-.195 -.285)" fill="none" d="M0 0h1773v5H0z"/></clipPath><clipPath id="k"><path data-name="Rectangle 180" fill="none" d="M0 0h1772.61v4.434H0z"/></clipPath><clipPath id="l"><path data-name="Path 3799" d="M0 0h926.987v928.674H0V0Z" transform="translate(64.418 -39.56)" fill="#fff" stroke="#707070"/></clipPath><clipPath id="m"><path data-name="Rectangle 1426" transform="translate(-77 -63)" fill="#fff" stroke="#707070" d="M0 0h1292v1187H0z"/></clipPath><clipPath id="n"><path data-name="Rectangle 1425" fill="none" d="M0 0h1257v1257H0z"/></clipPath><clipPath id="o"><path data-name="Rectangle 1275" fill="none" d="M0 0h3.088v1235.028H0z"/></clipPath><clipPath id="p"><path data-name="Rectangle 1277" fill="none" d="M0 0h3.095v1238.116H0z"/></clipPath><clipPath id="q"><path data-name="Rectangle 1285" fill="none" d="M0 0h3.094v1238.116H0z"/></clipPath><clipPath id="r"><path data-name="Rectangle 1295" fill="none" d="M0 0h3v1239H0z"/></clipPath><clipPath id="s"><path data-name="Rectangle 1299" fill="none" d="M0 0h3.097v1238.116H0z"/></clipPath><clipPath id="t"><path data-name="Rectangle 1317" fill="none" d="M0 0h1235.028v3.088H0z"/></clipPath><clipPath id="u"><path data-name="Rectangle 1319" fill="none" d="M0 0h1238.116v3.094H0z"/></clipPath><clipPath id="v"><path data-name="Rectangle 1337" fill="none" d="M0 0h1239v3H0z"/></clipPath><clipPath id="w"><path data-name="Rectangle 1341" fill="none" d="M0 0h1238.116v3.097H0z"/></clipPath><clipPath id="a"><path d="M0 0h927v930H0z"/></clipPath></defs><g data-name="Web 1920 – 1" clip-path="url(#a)"><g data-name="Group 222" opacity=".19"><g data-name="Group 221" clip-path="url(#b)" transform="rotate(180 5.033 1265.033)"><g data-name="Group 220"><g data-name="Group 219" clip-path="url(#b)"><g data-name="Group 95" opacity=".5"><g data-name="Group 94"><g data-name="Group 93" clip-path="url(#c)" transform="translate(13.261 15.472)"><path data-name="Rectangle 113" fill="#fff" d="M0 0h4.42v1768.19H0z"/></g></g></g><g data-name="Group 98" opacity=".2"><g data-name="Group 97"><g data-name="Group 96" clip-path="url(#d)" transform="translate(99.676 13.261)"><path data-name="Rectangle 115" fill="#fff" d="M-.004 0H4.43v1772.61H-.004z"/></g></g></g><g data-name="Group 101" opacity=".2"><g data-name="Group 100"><g data-name="Group 99" clip-path="url(#d)" transform="translate(188.306 13.261)"><path data-name="Rectangle 117" fill="#fff" d="M-.003 0h4.434v1772.61H-.003z"/></g></g></g><g data-name="Group 104" opacity=".2"><g data-name="Group 103"><g data-name="Group 102" clip-path="url(#d)" transform="translate(276.938 13.261)"><path data-name="Rectangle 119" fill="#fff" d="M-.004 0H4.43v1772.61H-.004z"/></g></g></g><g data-name="Group 107" opacity=".2"><g data-name="Group 106"><g data-name="Group 105" clip-path="url(#d)" transform="translate(365.568 13.261)"><path data-name="Rectangle 121" fill="#fff" d="M.001 0H4.43v1772.61H.001z"/></g></g></g><g data-name="Group 110" opacity=".5"><g data-name="Group 109"><g data-name="Group 108" clip-path="url(#e)" transform="translate(454.199 13.261)"><path data-name="Rectangle 123" fill="#fff" d="M-.004 0H4.43v1772.61H-.004z"/></g></g></g><g data-name="Group 113" opacity=".2"><g data-name="Group 112"><g data-name="Group 111" clip-path="url(#e)" transform="translate(542.83 13.261)"><path data-name="Rectangle 125" fill="#fff" d="M-.004 0H4.43v1772.61H-.004z"/></g></g></g><g data-name="Group 116" opacity=".2"><g data-name="Group 115"><g data-name="Group 114" clip-path="url(#e)" transform="translate(631.46 13.261)"><path data-name="Rectangle 127" fill="#fff" d="M0 0h4.429v1772.61H0z"/></g></g></g><g data-name="Group 119" opacity=".2"><g data-name="Group 118"><g data-name="Group 117" clip-path="url(#e)" transform="translate(720.091 13.261)"><path data-name="Rectangle 129" fill="#fff" d="M-.004 0H4.43v1772.61H-.004z"/></g></g></g><g data-name="Group 122" opacity=".2"><g data-name="Group 121"><g data-name="Group 120" clip-path="url(#e)" transform="translate(808.721 13.261)"><path data-name="Rectangle 131" fill="#fff" d="M-.004 0H4.43v1772.61H-.004z"/></g></g></g><g data-name="Group 125" opacity=".5"><g data-name="Group 124"><g data-name="Group 123" clip-path="url(#f)" transform="translate(897.348 13.261)"><path data-name="Rectangle 133" fill="#fff" d="M-.281-.195h5v1773h-5z"/></g></g></g><g data-name="Group 128" opacity=".2"><g data-name="Group 127"><g data-name="Group 126" clip-path="url(#e)" transform="translate(985.982 13.261)"><path data-name="Rectangle 135" fill="#fff" d="M0 0h4.429v1772.61H0z"/></g></g></g><g data-name="Group 131" opacity=".2"><g data-name="Group 130"><g data-name="Group 129" clip-path="url(#g)" transform="translate(1074.613 13.261)"><path data-name="Rectangle 137" fill="#fff" d="M0 0h4.434v1772.61H0z"/></g></g></g><g data-name="Group 134" opacity=".2"><g data-name="Group 133"><g data-name="Group 132" clip-path="url(#g)" transform="translate(1163.239 13.261)"><path data-name="Rectangle 139" fill="#fff" d="M0 0h4.434v1772.61H0z"/></g></g></g><g data-name="Group 137" opacity=".2"><g data-name="Group 136"><g data-name="Group 135" clip-path="url(#e)" transform="translate(1251.874 13.261)"><path data-name="Rectangle 141" fill="#fff" d="M0 0h4.429v1772.61H0z"/></g></g></g><g data-name="Group 140" opacity=".5"><g data-name="Group 139"><g data-name="Group 138" clip-path="url(#e)" transform="translate(1340.505 13.261)"><path data-name="Rectangle 143" fill="#fff" d="M0 0h4.429v1772.61H0z"/></g></g></g><g data-name="Group 143" opacity=".2"><g data-name="Group 142"><g data-name="Group 141" clip-path="url(#e)" transform="translate(1429.135 13.261)"><path data-name="Rectangle 145" fill="#fff" d="M0 0h4.429v1772.61H0z"/></g></g></g><g data-name="Group 146" opacity=".2"><g data-name="Group 145"><g data-name="Group 144" clip-path="url(#g)" transform="translate(1517.766 13.261)"><path data-name="Rectangle 147" fill="#fff" d="M0 0h4.434v1772.61H0z"/></g></g></g><g data-name="Group 149" opacity=".2"><g data-name="Group 148"><g data-name="Group 147" clip-path="url(#g)" transform="translate(1606.392 13.261)"><path data-name="Rectangle 149" fill="#fff" d="M0 0h4.434v1772.61H0z"/></g></g></g><g data-name="Group 152" opacity=".2"><g data-name="Group 151"><g data-name="Group 150" clip-path="url(#e)" transform="translate(1695.027 13.261)"><path data-name="Rectangle 151" fill="#fff" d="M0 0h4.429v1772.61H0z"/></g></g></g><g data-name="Group 155" opacity=".5"><g data-name="Group 154"><g data-name="Group 153" clip-path="url(#c)" transform="translate(1781.451 15.472)"><path data-name="Rectangle 153" fill="#fff" d="M0 0h4.42v1768.19H0z"/></g></g></g><g data-name="Group 158" opacity=".5"><g data-name="Group 157"><g data-name="Group 156" clip-path="url(#h)" transform="translate(15.472 13.261)"><path data-name="Rectangle 155" fill="#fff" d="M0 0h1768.19v4.42H0z"/></g></g></g><g data-name="Group 161" opacity=".2"><g data-name="Group 160"><g data-name="Group 159" clip-path="url(#i)" transform="translate(13.261 99.677)"><path data-name="Rectangle 157" fill="#fff" d="M0 0h1772.61v4.434H0z"/></g></g></g><g data-name="Group 164" opacity=".2"><g data-name="Group 163"><g data-name="Group 162" clip-path="url(#i)" transform="translate(13.261 188.308)"><path data-name="Rectangle 159" fill="#fff" d="M0 0h1772.61v4.434H0z"/></g></g></g><g data-name="Group 167" opacity=".2"><g data-name="Group 166"><g data-name="Group 165" clip-path="url(#i)" transform="translate(13.261 276.938)"><path data-name="Rectangle 161" fill="#fff" d="M0 0h1772.61v4.434H0z"/></g></g></g><g data-name="Group 170" opacity=".2"><g data-name="Group 169"><g data-name="Group 168" clip-path="url(#i)" transform="translate(13.261 365.569)"><path data-name="Rectangle 163" fill="#fff" d="M0 0h1772.61v4.434H0z"/></g></g></g><g data-name="Group 173" opacity=".5"><g data-name="Group 172"><g data-name="Group 171" clip-path="url(#i)" transform="translate(13.261 454.199)"><path data-name="Rectangle 165" fill="#fff" d="M0 0h1772.61v4.434H0z"/></g></g></g><g data-name="Group 176" opacity=".2"><g data-name="Group 175"><g data-name="Group 174" clip-path="url(#i)" transform="translate(13.261 542.83)"><path data-name="Rectangle 167" fill="#fff" d="M0 0h1772.61v4.434H0z"/></g></g></g><g data-name="Group 179" opacity=".2"><g data-name="Group 178"><g data-name="Group 177" clip-path="url(#i)" transform="translate(13.261 631.46)"><path data-name="Rectangle 169" fill="#fff" d="M0 0h1772.61v4.434H0z"/></g></g></g><g data-name="Group 182" opacity=".2"><g data-name="Group 181"><g data-name="Group 180" clip-path="url(#i)" transform="translate(13.261 720.091)"><path data-name="Rectangle 171" fill="#fff" d="M0 0h1772.61v4.434H0z"/></g></g></g><g data-name="Group 185" opacity=".2"><g data-name="Group 184"><g data-name="Group 183" clip-path="url(#i)" transform="translate(13.261 808.721)"><path data-name="Rectangle 173" fill="#fff" d="M0 0h1772.61v4.434H0z"/></g></g></g><g data-name="Group 188" opacity=".5"><g data-name="Group 187"><g data-name="Group 186" clip-path="url(#j)" transform="translate(13.261 897.352)"><path data-name="Rectangle 175" fill="#fff" d="M-.195-.285h1773v5h-1773z"/></g></g></g><g data-name="Group 191" opacity=".2"><g data-name="Group 190"><g data-name="Group 189" clip-path="url(#i)" transform="translate(13.261 985.982)"><path data-name="Rectangle 177" fill="#fff" d="M0 0h1772.61v4.429H0z"/></g></g></g><g data-name="Group 194" opacity=".2"><g data-name="Group 193"><g data-name="Group 192" clip-path="url(#k)" transform="translate(13.261 1074.613)"><path data-name="Rectangle 179" fill="#fff" d="M0 0h1772.61v4.434H0z"/></g></g></g><g data-name="Group 197" opacity=".2"><g data-name="Group 196"><g data-name="Group 195" clip-path="url(#k)" transform="translate(13.261 1163.239)"><path data-name="Rectangle 181" fill="#fff" d="M0 0h1772.61v4.434H0z"/></g></g></g><g data-name="Group 200" opacity=".2"><g data-name="Group 199"><g data-name="Group 198" clip-path="url(#i)" transform="translate(13.261 1251.874)"><path data-name="Rectangle 183" fill="#fff" d="M0 0h1772.61v4.429H0z"/></g></g></g><g data-name="Group 203" opacity=".5"><g data-name="Group 202"><g data-name="Group 201" clip-path="url(#i)" transform="translate(13.261 1340.505)"><path data-name="Rectangle 185" fill="#fff" d="M0 0h1772.61v4.429H0z"/></g></g></g><g data-name="Group 206" opacity=".2"><g data-name="Group 205"><g data-name="Group 204" clip-path="url(#i)" transform="translate(13.261 1429.134)"><path data-name="Rectangle 187" fill="#fff" d="M0 .001h1772.61V4.43H0z"/></g></g></g><g data-name="Group 209" opacity=".2"><g data-name="Group 208"><g data-name="Group 207" clip-path="url(#k)" transform="translate(13.261 1517.764)"><path data-name="Rectangle 189" fill="#fff" d="M0 .002h1772.61v4.434H0z"/></g></g></g><g data-name="Group 212" opacity=".2"><g data-name="Group 211"><g data-name="Group 210" clip-path="url(#k)" transform="translate(13.261 1606.394)"><path data-name="Rectangle 191" fill="#fff" d="M0-.002h1772.61v4.434H0z"/></g></g></g><g data-name="Group 215" opacity=".2"><g data-name="Group 214"><g data-name="Group 213" clip-path="url(#i)" transform="translate(13.261 1695.028)"><path data-name="Rectangle 193" fill="#fff" d="M0-.001h1772.61v4.429H0z"/></g></g></g><g data-name="Group 218" opacity=".5"><g data-name="Group 217"><g data-name="Group 216" clip-path="url(#h)" transform="translate(15.472 1781.451)"><path data-name="Rectangle 195" fill="#fff" d="M0 0h1768.19v4.42H0z"/></g></g></g></g></g><path data-name="Rectangle 198" fill="#fff" d="M13.067.067h5v31h-5z"/><path data-name="Rectangle 199" fill="#fff" d="M.067 13.067h31v5h-31z"/><path data-name="Rectangle 200" fill="#fff" d="M1781.067.067h5v31h-5z"/><path data-name="Rectangle 201" fill="#fff" d="M1768.067 13.067h31v5h-31z"/><path data-name="Rectangle 202" fill="#fff" d="M13.067 442.067h5v31h-5z"/><path data-name="Rectangle 203" fill="#fff" d="M.067 455.067h31v5h-31z"/><path data-name="Rectangle 204" fill="#fff" d="M1781.067 442.067h5v31h-5z"/><path data-name="Rectangle 205" fill="#fff" d="M1768.067 455.067h31v5h-31z"/><path data-name="Rectangle 206" fill="#fff" d="M13.067 884.067h5v31h-5z"/><path data-name="Rectangle 207" fill="#fff" d="M.067 897.067h31v5h-31z"/><path data-name="Rectangle 208" fill="#fff" d="M1781.067 884.067h5v31h-5z"/><path data-name="Rectangle 209" fill="#fff" d="M1768.067 897.067h31v5h-31z"/><path data-name="Rectangle 210" fill="#fff" d="M13.067 1326.067h5v31h-5z"/><path data-name="Rectangle 211" fill="#fff" d="M.067 1339.067h31v5h-31z"/><path data-name="Rectangle 212" fill="#fff" d="M1781.067 1326.067h5v31h-5z"/><path data-name="Rectangle 213" fill="#fff" d="M1768.067 1339.067h31v5h-31z"/><path data-name="Rectangle 214" fill="#fff" d="M13.067 1768.067h5v31h-5z"/><path data-name="Rectangle 215" fill="#fff" d="M.067 1781.067h31v5h-31z"/><path data-name="Rectangle 216" fill="#fff" d="M455.067.067h5v31h-5z"/><path data-name="Rectangle 217" fill="#fff" d="M442.067 13.067h31v5h-31z"/><path data-name="Rectangle 218" fill="#fff" d="M455.067 442.067h5v31h-5z"/><path data-name="Rectangle 219" fill="#fff" d="M442.067 455.067h31v5h-31z"/><path data-name="Rectangle 220" fill="#fff" d="M455.067 884.067h5v31h-5z"/><path data-name="Rectangle 221" fill="#fff" d="M442.067 897.067h31v5h-31z"/><path data-name="Rectangle 222" fill="#fff" d="M455.067 1326.067h5v31h-5z"/><path data-name="Rectangle 223" fill="#fff" d="M442.067 1339.067h31v5h-31z"/><path data-name="Rectangle 224" fill="#fff" d="M455.067 1768.067h5v31h-5z"/><path data-name="Rectangle 225" fill="#fff" d="M442.067 1781.067h31v5h-31z"/><path data-name="Rectangle 226" fill="#fff" d="M897.067.067h5v31h-5z"/><path data-name="Rectangle 227" fill="#fff" d="M884.067 13.067h31v5h-31z"/><path data-name="Rectangle 228" fill="#fff" d="M897.067 442.067h5v31h-5z"/><path data-name="Rectangle 229" fill="#fff" d="M884.067 455.067h31v5h-31z"/><path data-name="Rectangle 230" fill="#fff" d="M897.067 884.067h5v31h-5z"/><path data-name="Rectangle 231" fill="#fff" d="M884.067 897.067h31v5h-31z"/><path data-name="Rectangle 232" fill="#fff" d="M897.067 1326.067h5v31h-5z"/><path data-name="Rectangle 233" fill="#fff" d="M884.067 1339.067h31v5h-31z"/><path data-name="Rectangle 234" fill="#fff" d="M897.067 1768.067h5v31h-5z"/><path data-name="Rectangle 235" fill="#fff" d="M884.067 1781.067h31v5h-31z"/><path data-name="Rectangle 236" fill="#fff" d="M1339.067.067h5v31h-5z"/><path data-name="Rectangle 237" fill="#fff" d="M1326.067 13.067h31v5h-31z"/><path data-name="Rectangle 238" fill="#fff" d="M1339.067 442.067h5v31h-5z"/><path data-name="Rectangle 239" fill="#fff" d="M1326.067 455.067h31v5h-31z"/><path data-name="Rectangle 240" fill="#fff" d="M1339.067 884.067h5v31h-5z"/><path data-name="Rectangle 241" fill="#fff" d="M1326.067 897.067h31v5h-31z"/><path data-name="Rectangle 242" fill="#fff" d="M1339.067 1326.067h5v31h-5z"/><path data-name="Rectangle 243" fill="#fff" d="M1326.067 1339.067h31v5h-31z"/><path data-name="Rectangle 244" fill="#fff" d="M1339.067 1768.067h5v31h-5z"/><path data-name="Rectangle 245" fill="#fff" d="M1326.067 1781.067h31v5h-31z"/><path data-name="Rectangle 246" fill="#fff" d="M1781.067 1768.067h5v31h-5z"/><path data-name="Rectangle 247" fill="#fff" d="M1768.067 1781.067h31v5h-31z"/><path data-name="Rectangle 248" fill="#fff" d="M234.067 234.067h5v5h-5z"/><path data-name="Rectangle 249" fill="#fff" d="M676.067 234.067h5v5h-5z"/><path data-name="Rectangle 250" fill="#fff" d="M1118.067 234.067h5v5h-5z"/><path data-name="Rectangle 251" fill="#fff" d="M1560.067 234.067h5v5h-5z"/><path data-name="Rectangle 252" fill="#fff" d="M234.067 676.067h5v5h-5z"/><path data-name="Rectangle 253" fill="#fff" d="M676.067 676.067h5v5h-5z"/><path data-name="Rectangle 254" fill="#fff" d="M1118.067 676.067h5v5h-5z"/><path data-name="Rectangle 255" fill="#fff" d="M1560.067 676.067h5v5h-5z"/><path data-name="Rectangle 256" fill="#fff" d="M234.067 1118.067h5v5h-5z"/><path data-name="Rectangle 257" fill="#fff" d="M676.067 1118.067h5v5h-5z"/><path data-name="Rectangle 258" fill="#fff" d="M1118.067 1118.067h5v5h-5z"/><path data-name="Rectangle 259" fill="#fff" d="M1560.067 1118.067h5v5h-5z"/><path data-name="Rectangle 260" fill="#fff" d="M234.067 1560.067h5v5h-5z"/><path data-name="Rectangle 261" fill="#fff" d="M676.067 1560.067h5v5h-5z"/><path data-name="Rectangle 262" fill="#fff" d="M1118.067 1560.067h5v5h-5z"/><path data-name="Rectangle 263" fill="#fff" d="M1560.067 1560.067h5v5h-5z"/></g></g><g data-name="Mask Group 107" transform="translate(-64.418 39.56)" clip-path="url(#l)"><g data-name="Mask Group 106" transform="rotate(180 578 526.5)" clip-path="url(#m)"><g data-name="Group 1435" opacity=".19"><g data-name="Group 1434" clip-path="url(#n)"><g data-name="Group 1433"><g data-name="Group 1432" clip-path="url(#n)"><g data-name="Group 1308" opacity=".5"><g data-name="Group 1307"><g data-name="Group 1306" clip-path="url(#o)" transform="translate(9.381 11.107)"><path data-name="Rectangle 1274" fill="#fff" d="M0 0h3.088v1235.028H0z"/></g></g></g><g data-name="Group 1311" opacity=".2"><g data-name="Group 1310"><g data-name="Group 1309" clip-path="url(#p)" transform="translate(69.739 9.564)"><path data-name="Rectangle 1276" fill="#fff" d="M-.002 0h3.097v1238.116H-.002z"/></g></g></g><g data-name="Group 1314" opacity=".2"><g data-name="Group 1313"><g data-name="Group 1312" clip-path="url(#p)" transform="translate(131.644 9.564)"><path data-name="Rectangle 1278" fill="#fff" d="M-.002 0h3.097v1238.116H-.002z"/></g></g></g><g data-name="Group 1317" opacity=".2"><g data-name="Group 1316"><g data-name="Group 1315" clip-path="url(#p)" transform="translate(193.551 9.564)"><path data-name="Rectangle 1280" fill="#fff" d="M-.003 0h3.097v1238.116H-.003z"/></g></g></g><g data-name="Group 1320" opacity=".2"><g data-name="Group 1319"><g data-name="Group 1318" clip-path="url(#p)" transform="translate(255.456 9.564)"><path data-name="Rectangle 1282" fill="#fff" d="M.001 0h3.094v1238.116H.001z"/></g></g></g><g data-name="Group 1323" opacity=".5"><g data-name="Group 1322"><g data-name="Group 1321" clip-path="url(#q)" transform="translate(317.363 9.564)"><path data-name="Rectangle 1284" fill="#fff" d="M-.003 0h3.097v1238.116H-.003z"/></g></g></g><g data-name="Group 1326" opacity=".2"><g data-name="Group 1325"><g data-name="Group 1324" clip-path="url(#q)" transform="translate(379.269 9.564)"><path data-name="Rectangle 1286" fill="#fff" d="M-.003 0h3.097v1238.116H-.003z"/></g></g></g><g data-name="Group 1329" opacity=".2"><g data-name="Group 1328"><g data-name="Group 1327" clip-path="url(#q)" transform="translate(441.175 9.564)"><path data-name="Rectangle 1288" fill="#fff" d="M0 0h3.094v1238.116H0z"/></g></g></g><g data-name="Group 1332" opacity=".2"><g data-name="Group 1331"><g data-name="Group 1330" clip-path="url(#q)" transform="translate(503.08 9.564)"><path data-name="Rectangle 1290" fill="#fff" d="M-.003 0h3.097v1238.116H-.003z"/></g></g></g><g data-name="Group 1335" opacity=".2"><g data-name="Group 1334"><g data-name="Group 1333" clip-path="url(#q)" transform="translate(564.986 9.564)"><path data-name="Rectangle 1292" fill="#fff" d="M-.003 0h3.097v1238.116H-.003z"/></g></g></g><g data-name="Group 1338" opacity=".5"><g data-name="Group 1337"><g data-name="Group 1336" clip-path="url(#r)" transform="translate(627 9)"><path data-name="Rectangle 1294" fill="#fff" d="M0 0h3v1239H0z"/></g></g></g><g data-name="Group 1341" opacity=".2"><g data-name="Group 1340"><g data-name="Group 1339" clip-path="url(#q)" transform="translate(688.798 9.564)"><path data-name="Rectangle 1296" fill="#fff" d="M0 0h3.094v1238.116H0z"/></g></g></g><g data-name="Group 1344" opacity=".2"><g data-name="Group 1343"><g data-name="Group 1342" clip-path="url(#s)" transform="translate(750.704 9.564)"><path data-name="Rectangle 1298" fill="#fff" d="M0 0h3.097v1238.116H0z"/></g></g></g><g data-name="Group 1347" opacity=".2"><g data-name="Group 1346"><g data-name="Group 1345" clip-path="url(#s)" transform="translate(812.606 9.564)"><path data-name="Rectangle 1300" fill="#fff" d="M0 0h3.097v1238.116H0z"/></g></g></g><g data-name="Group 1350" opacity=".2"><g data-name="Group 1349"><g data-name="Group 1348" clip-path="url(#q)" transform="translate(874.515 9.564)"><path data-name="Rectangle 1302" fill="#fff" d="M0 0h3.094v1238.116H0z"/></g></g></g><g data-name="Group 1353" opacity=".5"><g data-name="Group 1352"><g data-name="Group 1351" clip-path="url(#q)" transform="translate(936.421 9.564)"><path data-name="Rectangle 1304" fill="#fff" d="M0 0h3.094v1238.116H0z"/></g></g></g><g data-name="Group 1356" opacity=".2"><g data-name="Group 1355"><g data-name="Group 1354" clip-path="url(#q)" transform="translate(998.327 9.564)"><path data-name="Rectangle 1306" fill="#fff" d="M0 0h3.094v1238.116H0z"/></g></g></g><g data-name="Group 1359" opacity=".2"><g data-name="Group 1358"><g data-name="Group 1357" clip-path="url(#s)" transform="translate(1060.233 9.564)"><path data-name="Rectangle 1308" fill="#fff" d="M0 0h3.097v1238.116H0z"/></g></g></g><g data-name="Group 1362" opacity=".2"><g data-name="Group 1361"><g data-name="Group 1360" clip-path="url(#s)" transform="translate(1122.135 9.564)"><path data-name="Rectangle 1310" fill="#fff" d="M0 0h3.097v1238.116H0z"/></g></g></g><g data-name="Group 1365" opacity=".2"><g data-name="Group 1364"><g data-name="Group 1363" clip-path="url(#q)" transform="translate(1184.044 9.564)"><path data-name="Rectangle 1312" fill="#fff" d="M0 0h3.094v1238.116H0z"/></g></g></g><g data-name="Group 1368" opacity=".5"><g data-name="Group 1367"><g data-name="Group 1366" clip-path="url(#o)" transform="translate(1244.409 11.107)"><path data-name="Rectangle 1314" fill="#fff" d="M0 0h3.088v1235.028H0z"/></g></g></g><g data-name="Group 1371" opacity=".5"><g data-name="Group 1370"><g data-name="Group 1369" clip-path="url(#t)" transform="translate(10.925 9.564)"><path data-name="Rectangle 1316" fill="#fff" d="M0 0h1235.028v3.088H0z"/></g></g></g><g data-name="Group 1374" opacity=".2"><g data-name="Group 1373"><g data-name="Group 1372" clip-path="url(#u)" transform="translate(9.381 69.922)"><path data-name="Rectangle 1318" fill="#fff" d="M0 0h1238.116v3.097H0z"/></g></g></g><g data-name="Group 1377" opacity=".2"><g data-name="Group 1376"><g data-name="Group 1375" clip-path="url(#u)" transform="translate(9.381 131.828)"><path data-name="Rectangle 1320" fill="#fff" d="M0 0h1238.116v3.097H0z"/></g></g></g><g data-name="Group 1380" opacity=".2"><g data-name="Group 1379"><g data-name="Group 1378" clip-path="url(#u)" transform="translate(9.381 193.734)"><path data-name="Rectangle 1322" fill="#fff" d="M0 0h1238.116v3.097H0z"/></g></g></g><g data-name="Group 1383" opacity=".2"><g data-name="Group 1382"><g data-name="Group 1381" clip-path="url(#u)" transform="translate(9.381 255.64)"><path data-name="Rectangle 1324" fill="#fff" d="M0 0h1238.116v3.097H0z"/></g></g></g><g data-name="Group 1386" opacity=".5"><g data-name="Group 1385"><g data-name="Group 1384" clip-path="url(#u)" transform="translate(9.381 317.546)"><path data-name="Rectangle 1326" fill="#fff" d="M0 0h1238.116v3.097H0z"/></g></g></g><g data-name="Group 1389" opacity=".2"><g data-name="Group 1388"><g data-name="Group 1387" clip-path="url(#u)" transform="translate(9.381 379.451)"><path data-name="Rectangle 1328" fill="#fff" d="M0 0h1238.116v3.097H0z"/></g></g></g><g data-name="Group 1392" opacity=".2"><g data-name="Group 1391"><g data-name="Group 1390" clip-path="url(#u)" transform="translate(9.381 441.357)"><path data-name="Rectangle 1330" fill="#fff" d="M0 0h1238.116v3.097H0z"/></g></g></g><g data-name="Group 1395" opacity=".2"><g data-name="Group 1394"><g data-name="Group 1393" clip-path="url(#u)" transform="translate(9.381 503.263)"><path data-name="Rectangle 1332" fill="#fff" d="M0 0h1238.116v3.097H0z"/></g></g></g><g data-name="Group 1398" opacity=".2"><g data-name="Group 1397"><g data-name="Group 1396" clip-path="url(#u)" transform="translate(9.381 565.169)"><path data-name="Rectangle 1334" fill="#fff" d="M0 0h1238.116v3.097H0z"/></g></g></g><g data-name="Group 1401" opacity=".5"><g data-name="Group 1400"><g data-name="Group 1399" clip-path="url(#v)" transform="translate(9 627)"><path data-name="Rectangle 1336" fill="#fff" d="M0 0h1239v3H0z"/></g></g></g><g data-name="Group 1404" opacity=".2"><g data-name="Group 1403"><g data-name="Group 1402" clip-path="url(#u)" transform="translate(9.381 688.98)"><path data-name="Rectangle 1338" fill="#fff" d="M0 0h1238.116v3.094H0z"/></g></g></g><g data-name="Group 1407" opacity=".2"><g data-name="Group 1406"><g data-name="Group 1405" clip-path="url(#w)" transform="translate(9.381 750.886)"><path data-name="Rectangle 1340" fill="#fff" d="M0 0h1238.116v3.097H0z"/></g></g></g><g data-name="Group 1410" opacity=".2"><g data-name="Group 1409"><g data-name="Group 1408" clip-path="url(#w)" transform="translate(9.381 812.789)"><path data-name="Rectangle 1342" fill="#fff" d="M0 0h1238.116v3.097H0z"/></g></g></g><g data-name="Group 1413" opacity=".2"><g data-name="Group 1412"><g data-name="Group 1411" clip-path="url(#u)" transform="translate(9.381 874.698)"><path data-name="Rectangle 1344" fill="#fff" d="M0 0h1238.116v3.094H0z"/></g></g></g><g data-name="Group 1416" opacity=".5"><g data-name="Group 1415"><g data-name="Group 1414" clip-path="url(#u)" transform="translate(9.381 936.604)"><path data-name="Rectangle 1346" fill="#fff" d="M0 0h1238.116v3.094H0z"/></g></g></g><g data-name="Group 1419" opacity=".2"><g data-name="Group 1418"><g data-name="Group 1417" clip-path="url(#u)" transform="translate(9.381 998.509)"><path data-name="Rectangle 1348" fill="#fff" d="M0 .001h1238.116v3.094H0z"/></g></g></g><g data-name="Group 1422" opacity=".2"><g data-name="Group 1421"><g data-name="Group 1420" clip-path="url(#w)" transform="translate(9.381 1060.414)"><path data-name="Rectangle 1350" fill="#fff" d="M0 .001h1238.116v3.097H0z"/></g></g></g><g data-name="Group 1425" opacity=".2"><g data-name="Group 1424"><g data-name="Group 1423" clip-path="url(#w)" transform="translate(9.381 1122.319)"><path data-name="Rectangle 1352" fill="#fff" d="M0-.001h1238.116v3.097H0z"/></g></g></g><g data-name="Group 1428" opacity=".2"><g data-name="Group 1427"><g data-name="Group 1426" clip-path="url(#u)" transform="translate(9.381 1184.227)"><path data-name="Rectangle 1354" fill="#fff" d="M0-.001h1238.116v3.094H0z"/></g></g></g><g data-name="Group 1431" opacity=".5"><g data-name="Group 1430"><g data-name="Group 1429" clip-path="url(#t)" transform="translate(10.925 1244.592)"><path data-name="Rectangle 1356" fill="#fff" d="M0 0h1235.028v3.088H0z"/></g></g></g></g></g><path data-name="Rectangle 1359" fill="#fff" d="M9 0h4v22H9z"/><path data-name="Rectangle 1360" fill="#fff" d="M0 9h22v4H0z"/><path data-name="Rectangle 1361" fill="#fff" d="M1244 0h4v22h-4z"/><path data-name="Rectangle 1362" fill="#fff" d="M1235 9h22v4h-22z"/><path data-name="Rectangle 1363" fill="#fff" d="M9 309h4v22H9z"/><path data-name="Rectangle 1364" fill="#fff" d="M0 318h22v4H0z"/><path data-name="Rectangle 1365" fill="#fff" d="M1244 309h4v22h-4z"/><path data-name="Rectangle 1366" fill="#fff" d="M1235 318h22v4h-22z"/><path data-name="Rectangle 1367" fill="#fff" d="M9 618h4v21H9z"/><path data-name="Rectangle 1368" fill="#fff" d="M0 627h22v3H0z"/><path data-name="Rectangle 1369" fill="#fff" d="M1244 618h4v21h-4z"/><path data-name="Rectangle 1370" fill="#fff" d="M1235 627h22v3h-22z"/><path data-name="Rectangle 1371" fill="#fff" d="M9 927h4v21H9z"/><path data-name="Rectangle 1372" fill="#fff" d="M0 936h22v3H0z"/><path data-name="Rectangle 1373" fill="#fff" d="M1244 927h4v21h-4z"/><path data-name="Rectangle 1374" fill="#fff" d="M1235 936h22v3h-22z"/><path data-name="Rectangle 1375" fill="#fff" d="M9 1235h4v22H9z"/><path data-name="Rectangle 1376" fill="#fff" d="M0 1244h22v4H0z"/><path data-name="Rectangle 1377" fill="#fff" d="M318 0h3v22h-3z"/><path data-name="Rectangle 1378" fill="#fff" d="M309 9h22v4h-22z"/><path data-name="Rectangle 1379" fill="#fff" d="M318 309h3v22h-3z"/><path data-name="Rectangle 1380" fill="#fff" d="M309 318h22v4h-22z"/><path data-name="Rectangle 1381" fill="#fff" d="M318 618h3v21h-3z"/><path data-name="Rectangle 1382" fill="#fff" d="M309 627h22v3h-22z"/><path data-name="Rectangle 1383" fill="#fff" d="M318 927h3v21h-3z"/><path data-name="Rectangle 1384" fill="#fff" d="M309 936h22v3h-22z"/><path data-name="Rectangle 1385" fill="#fff" d="M318 1235h3v22h-3z"/><path data-name="Rectangle 1386" fill="#fff" d="M309 1244h22v4h-22z"/><path data-name="Rectangle 1387" fill="#fff" d="M627 0h3v22h-3z"/><path data-name="Rectangle 1388" fill="#fff" d="M618 9h21v4h-21z"/><path data-name="Rectangle 1389" fill="#fff" d="M627 309h3v22h-3z"/><path data-name="Rectangle 1390" fill="#fff" d="M618 318h21v4h-21z"/><path data-name="Rectangle 1391" fill="#fff" d="M627 618h3v21h-3z"/><path data-name="Rectangle 1392" fill="#fff" d="M618 627h21v3h-21z"/><path data-name="Rectangle 1393" fill="#fff" d="M627 927h3v21h-3z"/><path data-name="Rectangle 1394" fill="#fff" d="M618 936h21v3h-21z"/><path data-name="Rectangle 1395" fill="#fff" d="M627 1235h3v22h-3z"/><path data-name="Rectangle 1396" fill="#fff" d="M618 1244h21v4h-21z"/><path data-name="Rectangle 1397" fill="#fff" d="M935 0h4v22h-4z"/><path data-name="Rectangle 1398" fill="#fff" d="M926 9h22v4h-22z"/><path data-name="Rectangle 1399" fill="#fff" d="M935 309h4v22h-4z"/><path data-name="Rectangle 1400" fill="#fff" d="M926 318h22v4h-22z"/><path data-name="Rectangle 1401" fill="#fff" d="M935 618h4v21h-4z"/><path data-name="Rectangle 1402" fill="#fff" d="M926 627h22v3h-22z"/><path data-name="Rectangle 1403" fill="#fff" d="M935 927h4v21h-4z"/><path data-name="Rectangle 1404" fill="#fff" d="M926 936h22v3h-22z"/><path data-name="Rectangle 1405" fill="#fff" d="M935 1235h4v22h-4z"/><path data-name="Rectangle 1406" fill="#fff" d="M926 1244h22v4h-22z"/><path data-name="Rectangle 1407" fill="#fff" d="M1244 1235h4v22h-4z"/><path data-name="Rectangle 1408" fill="#fff" d="M1235 1244h22v4h-22z"/><path data-name="Rectangle 1409" fill="#fff" d="M164 164h3v3h-3z"/><path data-name="Rectangle 1410" fill="#fff" d="M472 164h4v3h-4z"/><path data-name="Rectangle 1411" fill="#fff" d="M781 164h4v3h-4z"/><path data-name="Rectangle 1412" fill="#fff" d="M1090 164h3v3h-3z"/><path data-name="Rectangle 1413" fill="#fff" d="M164 473h3v3h-3z"/><path data-name="Rectangle 1414" fill="#fff" d="M472 473h4v3h-4z"/><path data-name="Rectangle 1415" fill="#fff" d="M781 473h4v3h-4z"/><path data-name="Rectangle 1416" fill="#fff" d="M1090 473h3v3h-3z"/><path data-name="Rectangle 1417" fill="#fff" d="M164 781h3v4h-3z"/><path data-name="Rectangle 1418" fill="#fff" d="M472 781h4v4h-4z"/><path data-name="Rectangle 1419" fill="#fff" d="M781 781h4v4h-4z"/><path data-name="Rectangle 1420" fill="#fff" d="M1090 781h3v4h-3z"/><path data-name="Rectangle 1421" fill="#fff" d="M164 1090h3v3h-3z"/><path data-name="Rectangle 1422" fill="#fff" d="M472 1090h4v3h-4z"/><path data-name="Rectangle 1423" fill="#fff" d="M781 1090h4v3h-4z"/><path data-name="Rectangle 1424" fill="#fff" d="M1090 1090h3v3h-3z"/></g></g></g></g></g></svg>