<svg width="1011" height="821" fill="none" xmlns="http://www.w3.org/2000/svg"><g clip-path="url(#a)"><mask id="b" style="mask-type:luminance" maskUnits="userSpaceOnUse" x="0" y="0" width="1011" height="821"><path d="M1011 0H0v821h1011V0Z" fill="#fff"/><path d="M.5.5h1010v820H.5V.5Z" stroke="#fff"/></mask><g opacity=".3" mask="url(#b)"><mask id="c" style="mask-type:luminance" maskUnits="userSpaceOnUse" x="-22" y="96" width="1085" height="818"><path d="M1062.54 96.229H-21.742v817.678H1062.54V96.229Z" fill="#fff"/><path d="M-21.242 96.729H1062.04v816.678H-21.242V96.729Z" stroke="#fff"/></mask><g mask="url(#c)"><path d="M387.389 203.368v449.461m39.562-446.118v446.203" stroke="#fff" stroke-opacity=".6" stroke-width=".702" stroke-linecap="round"/><mask id="d" style="mask-type:luminance" maskUnits="userSpaceOnUse" x="-22" y="96" width="1085" height="818"><path d="M1062.54 96.229H-21.742v817.678H1062.54V96.229Z" fill="#fff"/><path d="M-21.242 96.729H1062.04v816.678H-21.242V96.729Z" stroke="#fff"/></mask><g mask="url(#d)"><path d="M58.54 697.531c2.938-.274 346.845-47.358 346.845-47.358l566.737 72v3.1l-566.964-66.67-346.619 42.713v-3.785Z" stroke="#fff" stroke-opacity=".6" stroke-width=".702" stroke-linecap="round"/><path d="M61.236 700.952c2.923-.272 343.915-42.35 343.915-42.35l564.27 66.36v3.085l-564.5-61.065-343.685 37.732v-3.762Z" stroke="#fff" stroke-opacity=".6" stroke-width=".59" stroke-linecap="round"/><path d="M66.844 704.107c2.887-.269 337.979-37.128 337.979-37.128l558.991 60.428v3.044l-559.216-55.2-337.754 32.57v-3.714Z" stroke="#fff" stroke-opacity=".6" stroke-width=".582" stroke-linecap="round"/><path d="M80.348 706.52v18.753l323-33.951 560.465 52.425v-13.295l-559.219-55.2L80.348 706.52Z" stroke="#fff" stroke-opacity=".6" stroke-width=".582" stroke-linecap="round"/><path d="M80.348 725.272h15.14l307.863-30.411 560.462 48.886-560.461-52.424-323.004 33.949Z" stroke="#fff" stroke-opacity=".6" stroke-width=".374" stroke-linecap="round"/><path d="M381.945 696.977v8.062h3.74v154.684l16.494.995 20.818-1.241V706.53h3.954v-9.553l-23.6-2.115-21.406 2.115Z" stroke="#fff" stroke-opacity=".6" stroke-width=".374" stroke-linecap="round"/><path d="m85.576 736.572 317.775-24.582 19.647 1.491M85.576 739.303l317.775-23.257 19.647 1.488m-19.646-1.489v129.712" stroke="#fff" stroke-opacity=".6" stroke-width=".374" stroke-linecap="round"/><path d="m385.686 857.239-301.317-8.191V725.274" stroke="#fff" stroke-opacity=".6" stroke-width=".374" stroke-linecap="round"/><path d="M310.349 704.05v151.141l-6.49 1.659V714.474s-5.154-6.32-3.3-12.347l9.79 1.923Zm-24.391-.167c-1.856 6.028 3.3 12.347 3.3 12.347v139.937l14.6.685" stroke="#fff" stroke-opacity=".6" stroke-width=".374" stroke-linecap="round"/><path d="M225.302 712.291V852.88l-6.073 1.543V721.987s-4.823-5.879-3.089-11.484l9.162 1.788Z" stroke="#fff" stroke-opacity=".6" stroke-width=".553" stroke-linecap="round"/><path d="M205.946 712.454c-1.738 5.6 3.084 11.484 3.084 11.484v130.165l10.2.32" stroke="#fff" stroke-opacity=".6" stroke-width=".553" stroke-linecap="round"/><path d="M225.302 712.291V852.88l-6.073 1.543V721.987s-4.823-5.879-3.089-11.484l9.162 1.788Z" stroke="#fff" stroke-opacity=".6" stroke-width=".553" stroke-linecap="round"/><path d="M205.946 712.454c-1.738 5.6 3.084 11.484 3.084 11.484v130.165l10.2.32" stroke="#fff" stroke-opacity=".6" stroke-width=".553" stroke-linecap="round"/><path d="M152.558 719.637v131.4l-5.006 1.541V729.021s-3.976-4.958-2.544-10.565l7.55 1.181Zm-15.96-.151c-1.431 5.6 2.544 11.484 2.544 11.484v121.287l8.409.32" stroke="#fff" stroke-opacity=".6" stroke-width=".502" stroke-linecap="round"/><path d="M96.336 725.189v124.183l-4.79 1.476V734.383s-3.786-4.676-2.415-10.036l7.205.842Z" stroke="#fff" stroke-opacity=".6" stroke-width=".234"/><path d="M81.071 725.267c-1.37 5.363 2.435 10.985 2.435 10.985v114.29l8.042.3" stroke="#fff" stroke-opacity=".6" stroke-width=".234"/><path d="M813.139 744.049 422.998 713.48m540.817 42.375-84.542-6.624m-66.123-2.08-390.154-29.615m540.819 41.051-84.542-6.418M423.371 857.242l540.444-17.566v-95.93" stroke="#fff" stroke-opacity=".6" stroke-width=".374" stroke-linecap="round"/><path d="M544.662 707.189v146.768l6.49 1.624V717.568s5.154-6.184 3.3-12.081l-9.79 1.702Z" stroke="#fff" stroke-opacity=".6" stroke-width=".587" stroke-linecap="round"/><path d="M568.982 705.546c1.856 5.9-3.232 13.737-3.232 13.737v135.626l-14.6.672" stroke="#fff" stroke-opacity=".6" stroke-width=".587" stroke-linecap="round"/><path d="M656.02 717.072v132.962l6.073 1.468V726.71s4.708-5.192 2.969-10.532l-9.042.894Z" stroke="#fff" stroke-opacity=".6" stroke-width=".54" stroke-linecap="round"/><path d="M675.263 716.757c1.736 5.34-2.975 10.917-2.975 10.917V851.2l-10.2.3" stroke="#fff" stroke-opacity=".6" stroke-width=".54" stroke-linecap="round"/><path d="M736.9 723.918v123.654l5.006 1.475V732.889s3.976-3.893 2.544-9.253l-7.55.282Z" stroke="#fff" stroke-opacity=".6" stroke-width=".491" stroke-linecap="round"/><path d="M752.857 723.774c1.431 5.361-2.544 9.815-2.544 9.815v115.153l-8.409.3" stroke="#fff" stroke-opacity=".6" stroke-width=".491" stroke-linecap="round"/><path d="M68.813 382.096 403.35 171.547l545.066 333.8v6.622L403.304 181.205 68.813 388.817v-6.721Z" stroke="#fff" stroke-opacity=".6" stroke-width=".702" stroke-linecap="round" stroke-linejoin="round"/><path d="M68.813 388.818H80.35l322.999-195.09 534.975 318.238h10.093" stroke="#fff" stroke-opacity=".6" stroke-width=".374" stroke-linecap="round"/><path d="M403.352 193.727V650.25" stroke="#fff" stroke-opacity=".6" stroke-width=".702" stroke-linecap="round"/><path d="M80.348 388.818v306.047m857.976-182.9V717.95M142.693 342.961v343.527m8.36-1.136V337.771l7.2 3.991V684.37" stroke="#fff" stroke-opacity=".6" stroke-width=".374" stroke-linecap="round"/><path d="M68.813 389.116v307.195" stroke="#fff" stroke-opacity=".6" stroke-width=".702" stroke-linecap="round"/><path d="M77.172 695.279V383.928l7.2 2.46v307.29" stroke="#fff" stroke-opacity=".6" stroke-width=".374" stroke-linecap="round"/><path d="M210.057 300.918v376.37m10.882-1.497v-381.4l9.374 3.845v376.272m62.298-424.969v415.505m10.883-.615V243.018l9.377 5.359v414.758" stroke="#fff" stroke-opacity=".6" stroke-width=".677" stroke-linecap="round"/><path d="M752.17 392.69v301.54m-8.355-1.063V387.501l-7.2 4.686v300.165m89.436-255.094v266.358m-8.361-1.063v-270l-7.2 3.165v265.921m68.781-232.428v241.164m-8.36-1.062V464.506l-7.2 3.162V708.4" stroke="#fff" stroke-opacity=".6" stroke-width=".374" stroke-linecap="round"/><path d="M948.418 511.235v208.05" stroke="#fff" stroke-opacity=".6" stroke-width=".702" stroke-linecap="round"/><path d="M940.057 718.098V506.529l-7.2 3.165v207.828" stroke="#fff" stroke-opacity=".6" stroke-width=".374" stroke-linecap="round"/><path d="M669.244 342.489v341.206m-10.882-1.308V335.965l-9.374 3.847v341.384m-84.07-401.992v391.341m-10.882-1.486V272.682l-9.374 5.36v389.916" stroke="#fff" stroke-opacity=".6" stroke-width=".677" stroke-linecap="round"/><path d="M917.783 739.732v101.716l4.79 1.475v-93.53a10.04 10.04 0 0 0 2.415-9.12l-7.205-.541Zm15.272 1.126a8.976 8.976 0 0 1-2.435 9.11v92.652l-8.042.3m-783.435-79.284-42.807 1.987m4.92-.001v56.725m51.303-59.704 56.472-1.987m-50.105 1.763.192 60.265m66.185-62.524 64.672-1.574m-58.399 1.421v60.902m78.768-64.059 75.343-.995m-41.093.542v99.717M315.75 761.65h23.612v67.2h-22.351l-1.261-67.2Zm33.166 0v67.2h31.544v-67.862l-31.544.662Zm74.455-7.614 121.292 1.82m-5.225-.911v72.323m26.314-71.412 89.403 2.732m-4.866-.001v67.322m22-67.322 64.607 1.574m-4.05-.1v65.849" stroke="#fff" stroke-opacity=".6" stroke-width=".234"/><path d="M813.139 730.519v114.056m66.132-108.736v106.585" stroke="#fff" stroke-opacity=".6" stroke-width=".374" stroke-linecap="round"/><path d="M824.635 844.201V742.656l44.883 3.1v96.668m-119.206-82.363 62.827 2.913m-4.41-.205v63.14m70.542-60.038 38.513 1.737m-3.919-.176v55.919" stroke="#fff" stroke-opacity=".6" stroke-width=".234"/><path d="M127.352 397.761v49.662m0 22.246v49.662m0 28.357v49.662m0 22.652v49.662" stroke="#fff" stroke-opacity=".6" stroke-width=".374" stroke-linecap="round"/><path d="M863.939 842.924v-97.567M433.17 727.674l-1.25 19.476 101.648 1.589v-17.132l-100.398-3.933Zm-56.136 0v19.476s-58.671 2.334-57.859 1.589c.812-.745-.557-15.661-.008-16.4.549-.739 57.867-4.665 57.867-4.665Zm-96.251 24.787-47.586 2.483v-18.371l47.586-6.121v22.009Zm-79.489 2.485-42.272 1.453-.768-15.853 43.04-2.339v16.739Zm-68.234 5.061-31.8.979-.631-15.228 32.435-3.059-.004 17.308Zm438.641-11.122 77.287 3.329v-11.67l-77.287-5.711v14.052Zm108.69 3.659 50.289 2.4v-9.586l-50.289-2.7v9.886Zm75.431 3.312 50.558 2.732v-7.86l-50.558-3.576v8.704Zm127.887 6.914 28.931 1.611v-5.793l-28.931-1.367v5.549Z" stroke="#fff" stroke-opacity=".6" stroke-width=".234"/><path d="M775.889 399.688V375.31l-21.416-18.637v29.9m-.003-29.901-21.632 15.427" stroke="#fff" stroke-opacity=".6" stroke-width=".374" stroke-linecap="round"/><path d="m142.693 389.115-19.267 10.857v49.327l19.266-8.442m-31.341 13.572v-49L89.902 415.7v47.67l21.449-8.941Zm-17.66-40.544v48.025m116.366-109.194-19.582 11.42v53.63l19.579-9.185m-24.171-42.21v53.383l-20.278 8.344v-50.306l20.278-11.421Zm-17.117 9.641v50.76m25.479-64.832-.063 54.091m64.16-89.386-25.145 14.236v56.351l26.5-13.309-1.355-57.278Zm34.268 41.962-27.78 12.912v-58.6l27.78-15.89m-56.337 32.11v56.188m32.02-74.387v58.754m50.883-87.313v63.314l25.416-12.733v-65.479l-25.416 14.898Zm64.348 30.126-31.092 16.3v-66.289l31.092-19.367v69.356Zm-61.272-31.929v64.041m32.891-83.79v66.237M142.694 462.707l-19.266 8.742v49.327l19.266-6.321m-31.343 10.127v-49l-21.449 7.911v47.673l21.449-6.584Zm-17.66-42.485v48.025m116.366-96.419-19.582 9.267v53.633l19.582-7.033m-24.174-44.868v53.383l-20.278 6.117v-50.3l20.278-9.2Zm-17.117 7.765v50.76m25.479-62.036-.063 54.083m64.16-82.34-25.145 11.474v56.354l26.5-10.4-1.355-57.428Zm34.268 45.723-27.78 9.86v-58.6l27.78-12.841m-56.337 25.929v56.188m32.02-70.871v58.756m50.883-81.729v63.314l25.416-9.943v-65.48l-25.416 12.109Zm64.349 37.191-31.091 12.89v-66.294l31.092-15.953-.001 69.357Zm-61.273-38.657v64.041m32.891-80.178v66.237M142.694 542.93l-19.266 5.977v49.327l19.266-3.56m-31.343 5.63v-48.995l-21.449 4.827v47.673l21.449-3.505Zm-17.66-45.021v48.025m116.366-79.709-19.582 6.464v53.63l19.582-4.23m-24.174-48.334v53.383l-20.278 3.205v-50.306l20.278-6.282Zm-17.117 5.304v50.762m25.479-58.378-.063 54.073m64.16-73.127-25.145 7.859v56.354l26.5-6.594-1.355-57.619Zm34.268 50.645-27.78 5.872v-58.6l27.78-8.848m-56.337 17.833v56.188m32.02-66.273v58.754m50.883-74.421v63.314l25.416-6.295V482.46l-25.416 8.453Zm64.348 46.431-31.092 8.425v-66.292l31.092-11.489v69.356Zm-61.272-47.454v64.041m32.891-75.456v66.237m-212.449 70.817-19.266 5.617v49.327l19.266-3.2m-31.343 5.047v-48.995l-21.449 4.427v47.673l21.449-3.105Zm-17.66-45.349v48.025m116.366-71.559-19.582 5.519v53.63l19.579-3.283m-24.171-49.499v53.383l-20.278 2.228v-50.3l20.278-5.311Zm-17.117 4.48v50.76m25.479-57.151-.063 54.071m64.16-66.868-25.145 5.524v56.354l26.5-4.129-1.355-57.749Zm34.268 53.835-27.78 3.286v-58.6l27.78-6.264m-56.337 12.591v56.188m32.02-63.293v58.754m50.883-69.683v63.314l25.416-3.928V575.82l-25.416 6.09Zm64.348 52.422-31.092 5.532v-66.295l31.092-8.593v69.356Zm-61.272-53.16v64.041m32.891-72.393v66.237M608.68 344.619l33.152 20.077.477 53.466-34.905-18.438 1.276-55.105Zm-44.643 32.368 36.6 19.241-.51-56.961-35.2-22.152m72.846 45.164.477 53.436m-42.689-79.316.51 57.268m13.355 34.416 33.109 15.86.477 53.464-34.867-13.989 1.281-55.335ZM564.834 466.4l36.553 14.4-.507-56.961-36.591-18.582m74.195 36.779.477 53.436m-42.643-73.904.51 57.268m13.431 42.909 33.063 10.638.477 53.466-34.815-8.483 1.275-55.621Zm-44.524 45.683 36.5 8.41-.507-56.961-36.537-12.587m74.088 24.818.477 53.436m-42.582-67.205.51 57.268m154.498-149.885 18.907 11.663v44.15l-18.907-9.316m30.756 14.98v-43.743l21.049 11.214v42.355l-21.049-9.826Zm17.335-34.503-.003 42.705m-33.033-60.386-.003 44.488m-15.054 12.348 18.907 9.51v44.15l-18.907-7.163m30.756 11.477v-43.742l21.049 8.823v42.354l-21.049-7.435Zm17.333-36.471-.003 42.705m-33.033-56.629-.003 44.488m-15.054 20.021 18.907 6.75v44.15l-18.907-4.4m30.758 6.988v-43.743l21.048 5.763v42.356l-21.048-4.376Zm17.333-38.992-.003 42.708m-33.032-51.823-.003 44.488m-15.055 15.369 18.907 6.174v44.15l-18.907-3.827m30.756 6.046v-43.743l21.048 5.1v42.355l-21.048-3.712Zm17.333-39.536-.003 42.708m-33.032-50.793-.003 44.488m58.834-209.024 12.357 7.516v39.21l-12.354-5.791m20.096 9.436v-39.039l13.755 7.511v38.1l-13.755-6.572Zm11.328-32.88v38.362m-21.588-49.898-.003 39.445m-9.838 12.82 12.357 6.113v39.21l-12.354-4.389m20.096 7.113v-39.039l13.758 5.794v38.1l-13.758-4.855Zm11.328-34.287v38.364m-21.588-47.277-.003 39.445m-9.838 19.175 12.357 4.22v39.21l-12.354-2.5m20.096 3.985v-39.039l13.755 3.512v38.1l-13.755-2.573Zm11.328-36.159v38.364m-21.588-43.774-.003 39.445m-9.838 14.646 12.357 4.21v39.213l-12.354-2.488m20.096 3.926v-39.039l13.755 3.361v38.1l-13.755-2.422Zm11.328-36.275v38.364m-21.589-43.606v39.445m43.574-198.55 17.709 11.925v35.967l-17.709-9.58m28.805 15.331v-35.381l19.716 11.378v33.837l-19.716-9.834Zm16.239-25.986-.003 34.192m-30.94-52.326-.004 36.325m-14.1 8.642 17.709 9.555v35.965l-17.712-7.209m28.809 11.501v-35.381l19.716 8.84v33.837l-19.716-7.296Zm16.239-28.082-.003 34.192m-30.94-48.294-.003 36.325m-14.1 15.442 17.709 6.634v35.965l-17.715-4.287m28.811 6.786v-35.381l19.716 5.721v33.837l-19.716-4.177Zm16.237-30.657-.003 34.192m-30.94-43.334-.003 36.325m-14.097 12.13 17.709 5.554v35.967l-17.712-3.21m28.807 5.04v-35.383l19.716 4.55v33.837l-19.716-3.004Zm16.237-31.624-.003 34.192m-30.94-41.481-.003 36.325M668.432 383.925l28.292 16.406.189 48.61-28.281-13.6m34.733-31.625.186 48.212 29.287 12.577-.176-44.714-29.297-16.075Zm24.733 13.598.175 45.233m-36.992-65.338.285 49.189m-22.843 12.064 28.281 13.327.189 48.612-28.27-10.522m34.718-35.417.186 48.212 29.274 9.482-.173-44.717-29.287-12.977Zm24.72 10.98.175 45.233m-36.974-61.42.285 49.179m-22.804 22.764 28.265 9.525.189 48.612-28.254-6.72m34.7-40.098.186 48.212 29.26 5.66-.173-44.717-29.273-9.155Zm24.709 7.747.175 45.233m-36.956-56.584.285 49.168m-22.826 16.597 28.259 7.559.187 48.612-28.246-4.754m34.691-42.521.186 48.212 29.252 3.668-.173-44.714-29.265-7.166Zm24.701 6.064.175 45.233m-36.945-54.07.285 49.161m-81.439-65.675 33.03 6.836.474 53.466-34.779-4.474 1.275-55.828Zm-44.481 51.037 36.46 4.056-.504-56.967-36.5-8.233m74.011 16.127.477 53.436m-42.537-62.328.51 57.268m-60.468-347.667.14 61.083-41.667-19.775-.148-64.386 41.675 23.078Zm-105.361 8.726 50.98 26.125-.151-65.57-50.991-30.758.162 70.203Zm100.317-11.478.143 61.929m-54.077-92.53.151 65.648m59.032 57.396.14 61.083-41.655-15.3-.148-64.386 41.663 18.603Zm-105.333 20.29 50.966 20.437-.151-65.572-50.975-25.072.16 70.207Zm100.291-22.508.143 61.929m-54.063-86.7.151 65.648m59.048 63.186.14 61.083-41.642-9.754-.148-64.386 41.65 13.057Zm-105.301 34.652 50.95 13.37-.151-65.572-50.961-18 .162 70.202Zm100.258-36.206.143 61.929m-54.047-79.463.151 65.648m58.997 41.235.14 61.083-41.634-5.736-.148-64.389 41.642 9.042Zm-105.277 45.03 50.939 8.264-.154-65.572-50.947-12.894.162 70.202Zm100.236-46.108.143 61.929m-54.033-74.228.151 65.648" stroke="#fff" stroke-opacity=".6" stroke-width=".234" stroke-linecap="round"/><g opacity=".5"><mask id="e" style="mask-type:luminance" maskUnits="userSpaceOnUse" x="-3" y="96" width="435" height="302"><path d="M431.919 96.229H-2.645v301.532H431.92V96.229Z" fill="#fff"/><path d="M-2.145 96.729H431.42v300.532H-2.145V96.729Z" stroke="#fff"/></mask><g mask="url(#e)"><path d="m-2.645 397.761 54.04-38.032 54.215-37.816 108.447-75.621 108.833-75.149 54.424-37.569 54.607-37.345-54.038 38.035-54.218 37.815-108.45 75.618-108.834 75.148-54.423 37.567-54.603 37.349Z" fill="#fff" fill-opacity=".6"/><path d="m323.175 171.554 35.938-24.808-35.734 24.923-108.448 75.617-.002.001-108.832 75.147-34.541 23.842 34.341-23.953 108.445-75.62.001-.001 108.832-75.148Z" stroke="#fff" stroke-opacity=".6"/></g></g><g opacity=".5"><mask id="f" style="mask-type:luminance" maskUnits="userSpaceOnUse" x="292" y="103" width="725" height="444"><path d="M1016.06 103.795H292.611v442.62h723.449v-442.62Z" fill="#fff"/><path d="M293.111 104.295h722.449v441.62H293.111v-441.62Z" stroke="#fff"/></mask><g mask="url(#f)"><path d="m292.611 103.79 90.692 54.97 90.525 55.2 181.043 110.411 180.686 110.901 90.338 55.456 90.175 55.687-90.696-54.967-90.524-55.2-181.045-110.409-180.684-110.9-90.336-55.459-90.174-55.69Z" fill="#fff" fill-opacity=".6"/><path d="m835.296 435.698 57.678 35.407-57.863-35.284-181.044-110.408-.001-.001-180.683-110.899-57.655-35.396 57.84 35.27 181.042 110.41.001.001 180.685 110.9Z" stroke="#fff" stroke-opacity=".6"/></g></g><g opacity=".5"><mask id="g" style="mask-type:luminance" maskUnits="userSpaceOnUse" x="27" y="570" width="954" height="132"><path d="M980.812 570.266H27.994v131.48h952.818v-131.48Z" fill="#fff"/><path d="M28.494 570.766h951.818v130.48H28.494v-130.48Z" stroke="#fff"/></mask><g mask="url(#g)"><path d="m27.994 701.747 119.033-16.859 119.077-16.592 238.157-33.163 238.25-32.578 119.129-16.28 119.171-16.008-119.031 16.862-119.077 16.588-238.157 33.163-238.253 32.575-119.129 16.281-119.17 16.011Z" fill="#fff" fill-opacity=".6"/><path d="m742.579 603.05 67.674-9.248-67.619 9.42-238.156 33.163h-.001L266.225 668.96l-65.764 8.988 65.712-9.157 238.156-33.163h.001l238.249-32.578Z" stroke="#fff" stroke-opacity=".6"/></g></g><g opacity=".5"><mask id="h" style="mask-type:luminance" maskUnits="userSpaceOnUse" x="955" y="163" width="3" height="559"><path d="M957.097 163.926h-1.925v557.105h1.925V163.926Z" fill="#fff"/><path d="M955.672 164.426h.925v556.105h-.925V164.426Z" stroke="#fff"/></mask><g mask="url(#h)"><path d="m955.171 720.146.962-556.22.962 556.22a.967.967 0 0 1-1.925 0h.001Z" fill="#fff" fill-opacity=".6"/><path d="M955.817 720.407a.47.47 0 0 1-.146-.278l.462-267.109.462 267.101a.47.47 0 0 1-.463.409.467.467 0 0 1-.315-.123Z" stroke="#fff" stroke-opacity=".6"/></g></g><g opacity=".5"><mask id="i" style="mask-type:luminance" maskUnits="userSpaceOnUse" x="32" y="203" width="4" height="681"><path d="M35.014 203.368h-2.559v679.874h2.56V203.368Z" fill="#fff"/><path d="M32.955 203.868h1.56v678.874h-1.56V203.868Z" stroke="#fff"/></mask><g mask="url(#i)"><path d="m33.735 203.368.622 84.985.228 84.985.43 169.967-.428 169.969-.225 84.982-.628 84.985-.628-84.985-.225-84.982-.428-169.97.43-169.967.225-84.985.627-84.984Z" fill="#fff" fill-opacity=".6"/><path d="m33.862 798.255-.128 17.321-.128-17.321v-.003l-.225-84.979-.428-169.968v-.002l.43-169.965.225-84.982v-.003l.125-16.941.124 16.942v.003l.228 84.982.43 169.965v.002l-.428 169.967-.225 84.979v.003Z" stroke="#fff" stroke-opacity=".6"/></g></g></g></g></g></g><defs><clipPath id="a"><path fill="#fff" d="M0 0h1011v821H0z"/></clipPath></defs></svg>