<svg xmlns="http://www.w3.org/2000/svg" width="18.507" height="25.05"><g data-name="Group 1308"><g data-name="Group 923" transform="translate(-196.456 -1749.99)"><circle data-name="Ellipse 16" cx="4.5" cy="4.5" r="4.5" transform="translate(201 1755)" fill="#ffcd22"/><g data-name="Group 918"><g data-name="Group 917" fill="#fff"><path data-name="Path 465" d="M205.71 1749.99a9.264 9.264 0 0 0-9.254 9.254 10.676 10.676 0 0 0 .785 3.563 14.923 14.923 0 0 0 1.07 2l6.345 9.613a1.207 1.207 0 0 0 2.109 0l6.345-9.614a14.861 14.861 0 0 0 1.07-2 10.674 10.674 0 0 0 .784-3.563 9.264 9.264 0 0 0-9.254-9.253Zm7.466 12.394a13.673 13.673 0 0 1-.975 1.824l-6.345 9.614c-.125.19-.165.19-.29 0l-6.345-9.614a13.68 13.68 0 0 1-.975-1.824 9.691 9.691 0 0 1-.7-3.14 8.165 8.165 0 0 1 16.33 0 9.7 9.7 0 0 1-.7 3.14Z"/><path data-name="Path 466" d="M205.71 1754.345a4.9 4.9 0 1 0 4.9 4.9 4.9 4.9 0 0 0-4.9-4.9Zm0 8.709a3.81 3.81 0 1 1 3.81-3.81 3.815 3.815 0 0 1-3.81 3.81Z"/></g></g></g></g></svg>