<svg xmlns="http://www.w3.org/2000/svg" width="27.447" height="19.299"><g data-name="Group 1307"><g data-name="Group 922"><path data-name="Path 464" d="m1.715 1.697 10.513 10.4 1.519.934 1.051-.934 11.33-10.4-1.869-.934H2.651Z" fill="#ffcd22"/><g data-name="Group 914"><path data-name="Path 463" d="M25.035 0H2.412A2.416 2.416 0 0 0 0 2.412v14.474A2.416 2.416 0 0 0 2.412 19.3h22.623a2.416 2.416 0 0 0 2.412-2.412V2.412A2.416 2.416 0 0 0 25.035 0Zm-.37 1.608L14.347 11.96a.939.939 0 0 1-1.246 0L2.783 1.608ZM1.608 16.591V2.708l6.919 6.941Zm1.175 1.1 6.88-6.9 2.3 2.306a2.545 2.545 0 0 0 3.524 0l2.3-2.306 6.88 6.9Zm23.056-1.1L18.92 9.649l6.919-6.941Z" fill="#fff"/></g></g></g></svg>