<svg xmlns="http://www.w3.org/2000/svg" width="29.297" height="28.254"><g data-name="Group 1306"><g data-name="Group 921" transform="translate(-191.985 -1607.324)"><circle data-name="Ellipse 15" cx="4" cy="4" r="4" transform="translate(203 1624)" fill="#ffcd22"/><g data-name="Group 907"><g data-name="Group 906"><path data-name="Path 460" d="M220.159 1612.785a12.732 12.732 0 0 0-5.543-3.931 21.689 21.689 0 0 0-15.944-.024 12.727 12.727 0 0 0-5.556 3.914 5.026 5.026 0 0 0-.9 4.62 2.421 2.421 0 0 0 2.321 1.673h3.659a2.444 2.444 0 0 0 1.881-.877 2.4 2.4 0 0 0 .524-1.977c0-.021-.008-.041-.014-.062l-.193-.749a14.929 14.929 0 0 1 6.241-1.476 15.326 15.326 0 0 1 6.239 1.505l-.2.744a.66.66 0 0 0-.014.064 2.4 2.4 0 0 0 .518 1.978 2.445 2.445 0 0 0 1.883.882h3.659a2.421 2.421 0 0 0 2.321-1.666 5.031 5.031 0 0 0-.882-4.618Zm-.774 4.089a.687.687 0 0 1-.658.455h-3.659a.7.7 0 0 1-.54-.251.655.655 0 0 1-.148-.518l.364-1.385a.874.874 0 0 0-.4-.977 16.924 16.924 0 0 0-7.695-2.043h-.069a16.594 16.594 0 0 0-7.644 2.013.874.874 0 0 0-.4.972l.349 1.384a.655.655 0 0 1-.149.518.7.7 0 0 1-.54.25h-3.659a.687.687 0 0 1-.657-.457 3.307 3.307 0 0 1 .649-3.055c1.994-2.728 7.076-4.7 12.091-4.7h.027c5.02.007 10.109 2 12.1 4.741a3.312 3.312 0 0 1 .638 3.053Z" fill="#ffcd22"/></g></g><g data-name="Group 909"><g data-name="Group 908"><path data-name="Path 461" d="m214.907 1622.813-2.729-2.865a.874.874 0 0 0-.633-.271h-1.764v-1.191a.874.874 0 1 0-1.748 0v1.191h-2.8v-1.191a.874.874 0 1 0-1.748 0v1.191h-1.763a.874.874 0 0 0-.633.271l-2.729 2.865a11.977 11.977 0 0 0-3.318 8.295v3.6a.874.874 0 0 0 .874.874h21.434a.874.874 0 0 0 .874-.874v-3.6a11.976 11.976 0 0 0-3.317-8.295Zm-18.117 11.017v-2.722a10.236 10.236 0 0 1 2.836-7.089l2.47-2.594h9.074l2.47 2.594a10.236 10.236 0 0 1 2.836 7.089v2.722Z" fill="#fff"/></g></g><g data-name="Group 911"><g data-name="Group 910"><path data-name="Path 462" d="M206.633 1623.233a4.575 4.575 0 1 0 4.575 4.575 4.58 4.58 0 0 0-4.575-4.575Zm0 7.4a2.827 2.827 0 1 1 2.827-2.827 2.83 2.83 0 0 1-2.827 2.829Z" fill="#fff"/></g></g></g></g></svg>