<svg xmlns="http://www.w3.org/2000/svg" width="93.016" height="93"><path data-name="Path 127" d="M92.844 22.042a4.653 4.653 0 0 0-8.525-1.116l-.775 1.349a1.55 1.55 0 0 0-2.108.559l-3.937 6.711-1.349-.775a1.549 1.549 0 1 0-1.55 2.681l1.349.775-13.175 22.831-3.255 8.7-1.55 2.9a4.65 4.65 0 0 0 .248 5.022l-3.488 4.278-.976-2.448a3.1 3.1 0 0 0-5.534-.434l-.558.945-.527-6.2a3.1 3.1 0 0 0-6.03-.728l-3.813 11.439a1.55 1.55 0 0 0 .976 1.953 1.342 1.342 0 0 0 .481.123 1.55 1.55 0 0 0 1.473-1.054l3.8-11.439.543 6.292a3.1 3.1 0 0 0 5.75 1.334l.574-.946.961 2.434a3.1 3.1 0 0 0 5.3.79l3.612-4.572a4.774 4.774 0 0 0 1.225.155 4.65 4.65 0 0 0 4.045-2.295l1.55-2.588 5.906-7.176 13.314-23.111 1.349.775a1.554 1.554 0 0 1 .574 2.124l-6.2 10.742a1.539 1.539 0 1 0 2.614 1.605l6.2-10.742a4.648 4.648 0 0 0-1.7-6.358l-1.349-.775 3.875-6.712a1.551 1.551 0 0 0-.558-2.108l.775-1.349a4.649 4.649 0 0 0 .465-3.6ZM87 22.476a1.55 1.55 0 0 1 .946-.728 1.628 1.628 0 0 1 1.178.155 1.552 1.552 0 0 1 .729.945 1.628 1.628 0 0 1-.155 1.178l-.775 1.349-2.7-1.55ZM65.874 65.753l-.775-.45-2.294-1.334 2.2-5.89 4.882 2.821Zm-4.65 4.479a1.549 1.549 0 0 1-.465-2.031l.775-1.348 2.7 1.55-.775 1.333a1.549 1.549 0 0 1-2.232.5ZM71.655 58.36l-5.363-3.1 12.4-21.484 5.363 3.1Zm13.95-24.165-5.363-3.1 3.1-5.363 5.363 3.1Zm0 0" fill="#ffcd22"/><path data-name="Path 128" d="m24.459 69.455-5.486 5.472-3.286-3.286a1.551 1.551 0 1 0-2.186 2.2l3.286 3.286a3.125 3.125 0 0 0 4.387 0l5.471-5.487a1.55 1.55 0 0 0-2.186-2.186Zm0 0" fill="#fff"/><path data-name="Path 129" d="M6.2 73.625a13.175 13.175 0 1 0 26.35 0 1.55 1.55 0 0 0-3.1 0 10.076 10.076 0 1 1-4.03-8.06 1.55 1.55 0 0 0 1.86-2.48A13.175 13.175 0 0 0 6.2 73.625Zm0 0" fill="#fff"/><path data-name="Path 130" d="M55.8 12.4a1.55 1.55 0 0 0 0-3.1H15.5a1.55 1.55 0 0 0-1.55 1.55v6.2a1.55 1.55 0 0 0 1.55 1.55h40.3a1.55 1.55 0 0 0 0-3.1H17.05v-3.1Zm0 0" fill="#fff"/><path data-name="Path 131" d="M20.15 21.7a1.55 1.55 0 0 0 0 3.1h31a1.55 1.55 0 0 0 0-3.1Zm0 0" fill="#fff"/><path data-name="Path 132" d="M60.45 32.55h-34.1a1.55 1.55 0 1 0 0 3.1h34.1a1.55 1.55 0 0 0 0-3.1Zm0 0" fill="#fff"/><path data-name="Path 133" d="M44.95 43.4a1.55 1.55 0 0 0-1.55-1.55h-31a1.55 1.55 0 0 0 0 3.1h31a1.55 1.55 0 0 0 1.55-1.55Zm0 0" fill="#fff"/><path data-name="Path 134" d="M60.45 41.85H49.6a1.55 1.55 0 0 0 0 3.1h10.85a1.55 1.55 0 1 0 0-3.1Zm0 0" fill="#fff"/><path data-name="Path 135" d="M27.9 52.7a1.55 1.55 0 1 0 0-3.1H12.4a1.55 1.55 0 1 0 0 3.1Zm0 0" fill="#fff"/><path data-name="Path 136" d="M34.1 52.7h10.85a1.55 1.55 0 1 0 0-3.1H34.1a1.55 1.55 0 0 0 0 3.1Zm0 0" fill="#fff"/><path data-name="Path 137" d="M69.75 71.3a1.55 1.55 0 0 0-1.55 1.55v15.5a1.55 1.55 0 0 1-1.55 1.55h-62a1.55 1.55 0 0 1-1.55-1.55V4.65A1.55 1.55 0 0 1 4.65 3.1h62a1.55 1.55 0 0 1 1.55 1.55v29.111a1.55 1.55 0 1 0 3.1 0V4.65A4.65 4.65 0 0 0 66.65 0h-62A4.65 4.65 0 0 0 0 4.65v83.7A4.65 4.65 0 0 0 4.65 93h62a4.65 4.65 0 0 0 4.65-4.65v-15.5a1.55 1.55 0 0 0-1.55-1.55Zm0 0" fill="#fff"/></svg>